# This file uses centimeters as units for non-parametric coordinates.

mtllib tree3.mtl
g default
v 0.704725 0.049434 0.917299
v -0.311786 -0.167332 0.922976
v -1.095853 0.062097 -0.367399
v -0.003062 0.238541 -1.231340
v 1.131369 0.021190 -0.414137
v 0.006582 1.446473 1.147276
v -1.127850 1.447088 0.330073
v -0.701208 1.472920 -1.001363
v 0.119680 2.218197 -0.404957
v 0.568660 -0.227983 0.369841
v 0.410095 -0.012489 -0.584109
v -0.915508 0.036402 0.624399
v 1.269396 0.733711 0.369842
v 1.269396 0.710935 -0.453906
v 0.001760 0.748325 1.290838
v 0.785202 0.748325 1.036283
v -1.265877 0.736876 0.369842
v -0.781683 0.747127 1.036283
v -0.781683 0.746619 -1.120345
v -1.265877 0.734682 -0.453906
v 0.785202 0.731106 -1.120345
v 0.197387 1.072815 -1.369971
v 0.919027 1.454736 0.624399
v 1.134351 1.472101 -0.404959
v 0.218291 1.924680 0.624397
v 0.702489 1.968593 -0.042031
v -0.565141 1.924680 0.369841
v -0.565141 1.968598 -0.453905
v 0.001762 -2.173136 -0.274880
v -0.199891 -2.173136 -0.158457
v -0.199891 -2.173136 0.074392
v 0.001762 -2.173136 0.190818
v 0.203415 -2.173136 0.074392
v 0.203415 -2.173136 -0.158457
v 0.001762 0.558511 -0.157477
v -0.098217 0.558511 -0.099754
v -0.098217 0.558511 0.015691
v 0.001762 0.558511 0.073413
v 0.101741 0.558511 0.015691
v 0.101741 0.558511 -0.099754
vt 1.680924 1.470817
vt 1.697169 1.232899
vt 0.848148 1.658665
vt 1.569680 1.089643
vt 1.565667 1.383233
vt 0.725185 1.210611
vt 1.362509 1.271726
vt 0.599057 1.786609
vt 0.726306 1.493382
vt 0.551615 1.403791
vt 1.667529 1.649078
vt 1.705301 1.831729
vt 1.491870 1.588161
vt 0.564521 1.989286
vt 0.589241 1.599171
vt 1.891124 1.906178
vt 1.496274 1.743053
vt 1.423173 1.438306
vt 0.427809 1.773731
vt 1.149890 1.294558
vt 0.253846 1.768168
vt 0.392127 1.446193
vt 0.271470 1.565536
vt 1.536230 1.964161
vt 0.128980 1.417948
vt 0.013083 1.616935
vt 0.068609 1.835673
vt 1.268420 1.523385
vt 0.222217 0.653289
vt 1.800190 0.585413
vt 1.804486 0.651963
vt 0.230881 0.787519
vt 0.245263 0.116369
vt 1.811635 0.718268
vt 1.804474 0.385516
vt 0.230857 0.250104
vt 0.219323 0.518811
vt 1.798755 0.518740
vt 1.800184 0.452066
vt 0.222205 0.384334
vt 0.245300 0.921253
vt 1.811617 0.319210
vt 1.336839 1.093478
vt 0.297733 1.986390
vt 0.174466 1.202878
vt 0.497871 1.202878
vt 1.128937 1.590624
vt 1.314689 1.986073
vt 1.162962 1.824714
vt 1.979527 1.696210
vt 0.784607 1.957796
vt 1.979558 1.240516
vt 0.949977 1.928233
vn -0.184193 -0.964861 -0.187392
vn -0.184193 -0.964861 -0.187392
vn -0.184193 -0.964861 -0.187392
vn 0.633389 -0.742287 0.218696
vn 0.633389 -0.742287 0.218696
vn 0.633389 -0.742287 0.218696
vn -0.068299 -0.988585 -0.134298
vn -0.068299 -0.988585 -0.134298
vn -0.068299 -0.988585 -0.134298
vn 0.838236 -0.468820 0.278512
vn 0.838236 -0.468820 0.278512
vn 0.838236 -0.468820 0.278512
vn 0.089904 -0.397616 0.913137
vn 0.089904 -0.397616 0.913137
vn 0.089904 -0.397616 0.913137
vn -0.904925 -0.396611 0.154304
vn -0.904925 -0.396611 0.154304
vn -0.904925 -0.396611 0.154304
vn -0.459892 -0.553090 -0.694688
vn -0.459892 -0.553090 -0.694688
vn -0.459892 -0.553090 -0.694688
vn 0.430217 -0.522520 -0.736129
vn 0.430217 -0.522520 -0.736129
vn 0.430217 -0.522520 -0.736129
vn 0.792312 -0.189903 0.579809
vn 0.792312 -0.189903 0.579809
vn 0.792312 -0.189903 0.579809
vn -0.297492 -0.266493 0.916777
vn -0.297492 -0.266493 0.916777
vn -0.297492 -0.266493 0.916777
vn -0.969522 -0.245005 0.000700
vn -0.969522 -0.245005 0.000700
vn -0.969522 -0.245005 0.000700
vn -0.210711 -0.110806 -0.971248
vn -0.210711 -0.110806 -0.971248
vn -0.210711 -0.110806 -0.971248
vn 0.791201 -0.191800 -0.580701
vn 0.791201 -0.191800 -0.580701
vn 0.791201 -0.191800 -0.580701
vn 0.396784 0.591676 0.701771
vn 0.396784 0.591676 0.701771
vn 0.396784 0.591676 0.701771
vn -0.496406 0.527407 0.689509
vn -0.496406 0.527407 0.689509
vn -0.496406 0.527407 0.689509
vn -0.823776 0.506785 -0.254092
vn -0.823776 0.506785 -0.254092
vn -0.823776 0.506785 -0.254092
vn -0.027699 0.642983 -0.765380
vn -0.027699 0.642983 -0.765380
vn -0.027699 0.642983 -0.765380
vn 0.550594 0.748692 -0.369196
vn 0.550594 0.748692 -0.369196
vn 0.550594 0.748692 -0.369196
vn 0.438505 0.596307 -0.672408
vn 0.438505 0.596307 -0.672408
vn 0.438505 0.596307 -0.672408
vn -0.228684 0.749247 -0.621556
vn -0.228684 0.749247 -0.621556
vn -0.228684 0.749247 -0.621556
vn -0.345199 0.937197 0.050000
vn -0.345199 0.937197 0.050000
vn -0.345199 0.937197 0.050000
vn -0.648196 0.760396 0.040500
vn -0.648196 0.760396 0.040500
vn -0.648196 0.760396 0.040500
vn -0.091399 0.955288 0.281196
vn -0.091399 0.955288 0.281196
vn -0.091399 0.955288 0.281196
vn -0.200098 0.761994 0.615895
vn -0.200098 0.761994 0.615895
vn -0.200098 0.761994 0.615895
vn 0.249901 0.937205 0.243301
vn 0.249901 0.937205 0.243301
vn 0.249901 0.937205 0.243301
vn 0.506096 0.754694 0.417497
vn 0.506096 0.754694 0.417497
vn 0.506096 0.754694 0.417497
vn 0.803082 0.568787 0.177596
vn 0.803082 0.568787 0.177596
vn 0.803082 0.568787 0.177596
vn 0.798578 0.178595 -0.574784
vn 0.798578 0.178595 -0.574784
vn 0.798578 0.178595 -0.574784
vn 0.552817 0.429113 -0.714322
vn 0.552817 0.429113 -0.714322
vn 0.552817 0.429113 -0.714322
vn -0.300611 0.186507 -0.935333
vn -0.300611 0.186507 -0.935333
vn -0.300611 0.186507 -0.935333
vn -0.850537 0.455020 -0.263711
vn -0.850537 0.455020 -0.263711
vn -0.850537 0.455020 -0.263711
vn -0.981646 0.190709 -0.000500
vn -0.981646 0.190709 -0.000500
vn -0.981646 0.190709 -0.000500
vn -0.516298 0.468198 0.717097
vn -0.516298 0.468198 0.717097
vn -0.516298 0.468198 0.717097
vn -0.303407 0.193905 0.932923
vn -0.303407 0.193905 0.932923
vn -0.303407 0.193905 0.932923
vn 0.456887 0.381889 0.803377
vn 0.456887 0.381889 0.803377
vn 0.456887 0.381889 0.803377
vn 0.797070 0.184293 0.575078
vn 0.797070 0.184293 0.575078
vn 0.797070 0.184293 0.575078
vn 0.907404 0.371702 0.196101
vn 0.907404 0.371702 0.196101
vn 0.907404 0.371702 0.196101
vn 0.269802 -0.220601 -0.937306
vn 0.269802 -0.220601 -0.937306
vn 0.269802 -0.220601 -0.937306
vn -0.796961 0.182591 -0.575772
vn -0.796961 0.182591 -0.575772
vn -0.796961 0.182591 -0.575772
vn -0.776765 -0.269588 -0.569174
vn -0.776765 -0.269588 -0.569174
vn -0.776765 -0.269588 -0.569174
vn -0.796122 0.187005 0.575516
vn -0.796122 0.187005 0.575516
vn -0.796122 0.187005 0.575516
vn -0.793478 -0.186295 0.579384
vn -0.793478 -0.186295 0.579384
vn -0.793478 -0.186295 0.579384
vn -0.508206 -0.358204 0.783209
vn -0.508206 -0.358204 0.783209
vn -0.508206 -0.358204 0.783209
vn 0.303414 0.189909 0.933742
vn 0.303414 0.189909 0.933742
vn 0.303414 0.189909 0.933742
vn 0.303203 -0.193802 0.933011
vn 0.303203 -0.193802 0.933011
vn 0.303203 -0.193802 0.933011
vn 0.984558 0.174993 -0.004800
vn 0.984558 0.174993 -0.004800
vn 0.984558 0.174993 -0.004800
vn 0.980609 -0.195902 0.005400
vn 0.980609 -0.195902 0.005400
vn 0.980609 -0.195902 0.005400
vn 0.144301 -0.888006 -0.436603
vn 0.144301 -0.888006 -0.436603
vn 0.144301 -0.888006 -0.436603
vn -0.091300 -0.946702 -0.308901
vn -0.091300 -0.946702 -0.308901
vn -0.091300 -0.946702 -0.308901
vn -0.335806 -0.941216 0.036701
vn -0.335806 -0.941216 0.036701
vn -0.335806 -0.941216 0.036701
vn 0.100496 -0.966764 -0.235091
vn 0.100496 -0.966764 -0.235091
vn 0.100496 -0.966764 -0.235091
vn 0.192889 -0.893749 0.404977
vn 0.192889 -0.893749 0.404977
vn 0.192889 -0.893749 0.404977
vn 0.499700 0.037200 0.865399
vn 0.499700 0.037200 0.865399
vn 0.499700 0.037200 0.865399
vn 0.499700 0.037200 0.865399
vn -0.999308 0.037200 0.000000
vn -0.999308 0.037200 0.000000
vn -0.999308 0.037200 0.000000
vn -0.999308 0.037200 0.000000
vn 0.999308 0.037200 0.000000
vn 0.999308 0.037200 0.000000
vn 0.999308 0.037200 0.000000
vn 0.999308 0.037200 0.000000
vn -0.499700 0.037200 0.865399
vn -0.499700 0.037200 0.865399
vn -0.499700 0.037200 0.865399
vn -0.499700 0.037200 0.865399
vn -0.499700 0.037200 -0.865399
vn -0.499700 0.037200 -0.865399
vn -0.499700 0.037200 -0.865399
vn -0.499700 0.037200 -0.865399
vn 0.499700 0.037200 -0.865399
vn 0.499700 0.037200 -0.865399
vn 0.499700 0.037200 -0.865399
vn 0.499700 0.037200 -0.865399
s off
g tree7:polySurface375
usemtl initialShadingGroup
f 11/1/1 10/2/2 2/52/3
f 1/4/4 10/2/5 5/5/6
f 11/1/7 2/52/8 3/50/9
f 1/4/10 5/5/11 13/7/12
f 2/3/13 1/51/14 15/8/15
f 3/6/16 12/9/17 17/10/18
f 4/11/19 3/50/20 19/12/21
f 5/5/22 4/11/23 21/13/24
f 1/4/25 13/7/26 16/43/27
f 2/3/28 15/8/29 18/15/30
f 3/6/31 17/10/32 20/46/33
f 4/11/34 19/12/35 22/17/36
f 5/5/37 21/13/38 14/18/39
f 6/19/40 23/44/41 25/21/42
f 7/22/43 6/19/44 27/23/45
f 8/45/46 7/22/47 28/25/48
f 22/17/49 8/24/50 9/49/51
f 26/47/52 24/28/53 9/49/54
f 24/28/55 22/17/56 9/49/57
f 9/49/58 8/24/59 28/48/60
f 28/25/61 27/23/62 9/26/63
f 28/25/64 7/22/65 27/23/66
f 27/23/67 25/21/68 9/26/69
f 27/23/70 6/19/71 25/21/72
f 25/21/73 26/27/74 9/26/75
f 25/21/76 23/44/77 26/27/78
f 23/20/79 24/28/80 26/47/81
f 14/18/82 21/13/83 24/28/84
f 21/13/85 22/17/86 24/28/87
f 22/17/88 19/12/89 8/24/90
f 20/46/91 7/22/92 8/45/93
f 20/46/94 17/10/95 7/22/96
f 18/15/97 6/19/98 7/22/99
f 18/15/100 15/8/101 6/19/102
f 16/14/103 23/44/104 6/19/105
f 16/43/106 13/7/107 23/20/108
f 13/7/109 24/28/110 23/20/111
f 21/13/112 4/11/113 22/17/114
f 19/12/115 20/16/116 8/24/117
f 19/12/118 3/50/119 20/16/120
f 17/10/121 18/15/122 7/22/123
f 17/10/124 12/9/125 18/15/126
f 12/9/127 2/3/128 18/15/129
f 15/8/130 16/14/131 6/19/132
f 15/8/133 1/51/134 16/14/135
f 13/7/136 14/18/137 24/28/138
f 13/7/139 5/5/140 14/18/141
f 11/1/142 4/11/143 5/5/144
f 11/1/145 3/50/146 4/11/147
f 3/6/148 2/3/149 12/9/150
f 5/5/151 10/2/152 11/1/153
f 2/3/154 10/53/155 1/51/156
f 33/29/157 39/30/158 38/31/159 32/32/160
f 31/33/161 37/42/162 36/35/163 30/36/164
f 34/37/165 40/38/166 39/30/167 33/29/168
f 32/32/169 38/31/170 37/34/171 31/41/172
f 30/36/173 36/35/174 35/39/175 29/40/176
f 29/40/177 35/39/178 40/38/179 34/37/180
