# This file uses centimeters as units for non-parametric coordinates.

mtllib tree.mtl
g default
v -5.990673 47.721638 -5.373928
v -8.051892 47.243320 -0.673415
v -6.956528 47.721638 4.340955
v -3.123042 47.243320 7.753805
v 1.984372 47.721638 8.261618
v 6.414850 47.243320 5.670351
v 8.476069 47.721638 0.969838
v 7.380704 47.243320 -4.044515
v 3.547219 47.721638 -7.457399
v -1.560195 47.243320 -7.965195
v 0.212106 70.649568 0.148220
v 0.212106 57.807187 0.148220
v -2.628467 34.965400 -12.855630
v 5.557469 35.432181 -12.041761
v 11.701684 34.965400 -6.571728
v 13.457257 35.432181 1.465062
v 10.153615 34.965400 8.998897
v 3.052644 35.432181 13.152036
v -5.133292 34.965400 12.338184
v -11.277507 35.432181 6.868168
v -13.033080 34.965400 -1.168656
v -9.729438 35.432181 -8.702474
v -13.196251 19.255730 -11.788880
v -17.651906 18.658694 -1.627878
v -15.284152 19.255730 9.211532
v -6.997337 18.658694 16.589071
v 4.043231 19.255730 17.686745
v 13.620428 18.658694 12.085286
v 18.076117 19.255730 1.924284
v 15.708329 18.658694 -8.915109
v 7.421514 19.255730 -16.292631
v -3.619054 18.658694 -17.390305
v 0.212106 47.873597 0.148220
v 0.212106 35.778970 0.148220
v -4.570233 5.556531 -21.744808
v 9.211500 6.174151 -20.374584
v 19.555771 5.556531 -11.165360
v 22.511384 6.174151 2.365255
v 16.949452 5.556531 15.049041
v 4.994410 6.174151 22.041214
v -8.787323 5.556531 20.670990
v -19.131594 6.174151 11.461783
v -22.087207 5.556531 -2.068832
v -16.525275 6.174151 -14.752618
v -21.628516 -8.665404 -19.295896
v -28.886260 -9.241556 -2.744810
v -25.029445 -8.665404 14.911287
v -11.531225 -9.241556 26.928416
v 6.452547 -8.665404 28.716384
v 22.052693 -9.241556 19.592319
v 29.310471 -8.665404 3.041233
v 25.453656 -9.241556 -14.614864
v 11.955402 -8.665404 -26.631976
v -6.028370 -9.241556 -28.419978
v 0.212106 18.951837 0.148220
v 0.212106 8.011232 0.148220
v -7.437317 -26.547558 -34.869993
v 14.606772 -25.841345 -32.678323
v 31.152590 -26.547558 -17.948027
v 35.880162 -25.841345 3.694412
v 26.983767 -26.547558 23.982329
v 7.861494 -25.841345 35.166399
v -14.182595 -26.547558 32.974729
v -30.728413 -25.841345 18.244433
v -35.455985 -26.547558 -3.397989
v -26.559590 -25.841345 -23.685906
v -32.986087 -46.504880 -29.407246
v -44.018069 -47.380631 -4.249265
v -38.155622 -46.504880 22.588417
v -17.638017 -47.380631 40.854694
v 9.697729 -46.504880 43.572461
v 33.410264 -47.380631 29.703669
v 44.442246 -46.504880 4.545671
v 38.579799 -47.380631 -22.291994
v 18.062194 -46.504880 -40.558288
v -9.273552 -47.380631 -43.276055
v 0.212106 -4.526059 0.148220
v 0.178137 69.945848 0.148220
v 4.508490 -71.480129 -4.182149
v 6.302170 -71.480129 0.148220
v 4.508490 -71.480129 4.478555
v 0.178137 -71.480129 6.272270
v -4.152249 -71.480129 4.478555
v -5.945930 -71.480129 0.148220
v -4.152249 -71.480129 -4.182149
v 0.178137 -71.480129 -5.975830
vt 0.786897 0.969501
vt 0.782859 0.973696
vt 0.782859 0.968510
vt 0.778822 0.969501
vt 0.776327 0.975298
vt 0.778822 0.977891
vt 0.786897 0.977891
vt 0.789392 0.975298
vt 0.789392 0.972093
vt 0.782859 0.978881
vt 0.776327 0.972093
vt 0.778822 0.969501
vt 0.782859 0.973696
vt 0.776327 0.972093
vt 0.782859 0.968510
vt 0.789392 0.975298
vt 0.789392 0.972093
vt 0.776327 0.975298
vt 0.786897 0.969501
vt 0.786897 0.977891
vt 0.778822 0.977891
vt 0.782859 0.978881
vt 0.776327 0.975298
vt 0.782859 0.973696
vt 0.778822 0.977891
vt 0.782859 0.968510
vt 0.778822 0.969501
vt 0.786897 0.969501
vt 0.789392 0.972093
vt 0.776327 0.972093
vt 0.782859 0.978881
vt 0.786897 0.977891
vt 0.789392 0.975298
vt 0.789392 0.975298
vt 0.782859 0.973696
vt 0.789392 0.972093
vt 0.782859 0.968510
vt 0.778822 0.969501
vt 0.776327 0.972093
vt 0.782859 0.978881
vt 0.786897 0.977891
vt 0.776327 0.975298
vt 0.778822 0.977891
vt 0.786897 0.969501
vt 0.786897 0.969501
vt 0.782859 0.973696
vt 0.782859 0.968510
vt 0.778822 0.969501
vt 0.776327 0.975298
vt 0.778822 0.977891
vt 0.786897 0.977891
vt 0.789392 0.975298
vt 0.789392 0.972093
vt 0.782859 0.978881
vt 0.776327 0.972093
vt 0.789392 0.972093
vt 0.782859 0.973696
vt 0.786897 0.969501
vt 0.782859 0.968510
vt 0.778822 0.969501
vt 0.786897 0.977891
vt 0.789392 0.975298
vt 0.776327 0.972093
vt 0.776327 0.975298
vt 0.778822 0.977891
vt 0.782859 0.978881
vt 0.778822 0.969501
vt 0.782859 0.973696
vt 0.776327 0.972093
vt 0.778822 0.977891
vt 0.782859 0.978881
vt 0.789392 0.975298
vt 0.789392 0.972093
vt 0.782859 0.968510
vt 0.776327 0.975298
vt 0.786897 0.977891
vt 0.786897 0.969501
vt 0.896896 0.957836
vt 0.909581 0.970521
vt 0.891641 0.970521
vt 0.927521 0.970521
vt 0.922266 0.957836
vt 0.922266 0.983207
vt 0.909581 0.952581
vt 0.896896 0.983207
vt 0.909581 0.988461
vn 0.854365 0.322539 0.407467
vn 0.854365 0.322539 0.407467
vn 0.854365 0.322539 0.407467
vn 0.503580 0.322544 0.801482
vn 0.503580 0.322544 0.801482
vn 0.503580 0.322544 0.801482
vn -0.930698 0.322541 0.172539
vn -0.930698 0.322541 0.172539
vn -0.930697 0.322541 0.172539
vn 0.063695 0.322542 -0.944410
vn 0.063695 0.322542 -0.944410
vn 0.063695 0.322542 -0.944410
vn 0.651536 0.322543 -0.686635
vn 0.651536 0.322543 -0.686635
vn 0.651536 0.322543 -0.686635
vn -0.451690 0.322547 -0.831829
vn -0.451690 0.322547 -0.831829
vn -0.451690 0.322547 -0.831829
vn -0.878507 0.322540 -0.352411
vn -0.878507 0.322539 -0.352411
vn -0.878507 0.322540 -0.352411
vn -0.606638 0.322543 0.726606
vn -0.606638 0.322543 0.726606
vn -0.606638 0.322543 0.726606
vn -0.123504 0.322542 0.938463
vn -0.123504 0.322542 0.938464
vn -0.123504 0.322542 0.938463
vn 0.917867 0.322543 -0.231272
vn 0.917867 0.322543 -0.231272
vn 0.917867 0.322543 -0.231272
vn -0.113866 0.488367 0.865177
vn -0.113866 0.488367 0.865177
vn -0.113866 0.488367 0.865177
vn 0.464257 0.488367 0.738894
vn 0.464257 0.488367 0.738894
vn 0.464257 0.488367 0.738894
vn 0.600655 0.488368 -0.633017
vn 0.600655 0.488368 -0.633017
vn 0.600655 0.488368 -0.633017
vn -0.559263 0.488364 0.669869
vn -0.559263 0.488364 0.669870
vn -0.559263 0.488364 0.669870
vn 0.787649 0.488365 0.375645
vn 0.787649 0.488365 0.375645
vn 0.787649 0.488365 0.375645
vn 0.058719 0.488365 -0.870661
vn 0.058719 0.488365 -0.870661
vn 0.058719 0.488365 -0.870661
vn -0.809904 0.488365 -0.324894
vn -0.809904 0.488365 -0.324893
vn -0.809904 0.488365 -0.324894
vn 0.846192 0.488368 -0.213206
vn 0.846192 0.488368 -0.213206
vn 0.846191 0.488368 -0.213206
vn -0.858020 0.488364 0.159064
vn -0.858020 0.488364 0.159064
vn -0.858020 0.488364 0.159064
vn -0.416421 0.488367 -0.766871
vn -0.416421 0.488367 -0.766871
vn -0.416421 0.488367 -0.766871
vn -0.846787 0.508242 0.156977
vn -0.846787 0.508242 0.156977
vn -0.846787 0.508242 0.156977
vn 0.458184 0.508240 0.729218
vn 0.458184 0.508240 0.729218
vn 0.458184 0.508240 0.729218
vn 0.777334 0.508242 0.370731
vn 0.777334 0.508242 0.370731
vn 0.777334 0.508242 0.370731
vn 0.835113 0.508241 -0.210419
vn 0.835113 0.508241 -0.210419
vn 0.835113 0.508241 -0.210419
vn -0.112377 0.508243 0.853851
vn -0.112377 0.508243 0.853851
vn -0.112377 0.508243 0.853851
vn -0.551940 0.508240 0.661100
vn -0.551940 0.508240 0.661100
vn -0.551940 0.508240 0.661100
vn -0.799303 0.508241 -0.320634
vn -0.799303 0.508241 -0.320634
vn -0.799303 0.508241 -0.320633
vn -0.410965 0.508243 -0.756833
vn -0.410965 0.508243 -0.756833
vn -0.410965 0.508243 -0.756833
vn 0.592795 0.508241 -0.624728
vn 0.592795 0.508241 -0.624728
vn 0.592795 0.508241 -0.624728
vn 0.057948 0.508240 -0.859263
vn 0.057948 0.508240 -0.859263
vn 0.057948 0.508240 -0.859263
vn 0.560688 0.580063 -0.590894
vn 0.560688 0.580063 -0.590894
vn 0.560688 0.580063 -0.590894
vn 0.433369 0.580061 0.689725
vn 0.433369 0.580061 0.689725
vn 0.433369 0.580061 0.689725
vn -0.106292 0.580062 0.807607
vn -0.106291 0.580062 0.807607
vn -0.106292 0.580062 0.807607
vn -0.388710 0.580062 -0.715844
vn -0.388710 0.580062 -0.715844
vn -0.388710 0.580062 -0.715844
vn -0.800926 0.580063 0.148476
vn -0.800926 0.580063 0.148476
vn -0.800926 0.580063 0.148476
vn 0.789885 0.580062 -0.199019
vn 0.789885 0.580062 -0.199019
vn 0.789885 0.580062 -0.199019
vn -0.756012 0.580063 -0.303271
vn -0.756012 0.580063 -0.303271
vn -0.756012 0.580063 -0.303271
vn 0.054810 0.580064 -0.812725
vn 0.054810 0.580064 -0.812725
vn 0.054810 0.580064 -0.812725
vn 0.735236 0.580062 0.350651
vn 0.735236 0.580062 0.350651
vn 0.735236 0.580062 0.350651
vn -0.522048 0.580062 0.625295
vn -0.522048 0.580062 0.625295
vn -0.522048 0.580062 0.625295
vn 0.639482 0.705725 0.304984
vn 0.639482 0.705725 0.304984
vn 0.639482 0.705725 0.304984
vn 0.376926 0.705725 0.599899
vn 0.376926 0.705725 0.599899
vn 0.376926 0.705725 0.599899
vn -0.696618 0.705723 0.129141
vn -0.696618 0.705723 0.129141
vn -0.696618 0.705723 0.129141
vn 0.047673 0.705724 -0.706881
vn 0.047673 0.705724 -0.706881
vn 0.047673 0.705724 -0.706881
vn 0.487667 0.705726 -0.513938
vn 0.487667 0.705726 -0.513938
vn 0.487667 0.705726 -0.513938
vn -0.338086 0.705727 -0.622614
vn -0.338086 0.705727 -0.622614
vn -0.338086 0.705726 -0.622614
vn -0.657553 0.705725 -0.263774
vn -0.657553 0.705725 -0.263774
vn -0.657553 0.705725 -0.263774
vn -0.454058 0.705726 0.543858
vn -0.454058 0.705726 0.543858
vn -0.454058 0.705726 0.543858
vn -0.092446 0.705727 0.702427
vn -0.092446 0.705727 0.702427
vn -0.092446 0.705727 0.702427
vn 0.687014 0.705725 -0.173101
vn 0.687014 0.705725 -0.173101
vn 0.687014 0.705725 -0.173101
vn 0.687013 0.705726 -0.173100
vn 0.687013 0.705726 -0.173100
vn 0.687013 0.705726 -0.173100
vn 0.376927 0.705725 0.599899
vn 0.376927 0.705725 0.599899
vn 0.376927 0.705725 0.599899
vn 0.047671 0.705725 -0.706880
vn 0.047671 0.705725 -0.706880
vn 0.047671 0.705725 -0.706880
vn -0.454060 0.705725 0.543858
vn -0.454060 0.705725 0.543858
vn -0.454060 0.705725 0.543858
vn -0.657552 0.705725 -0.263775
vn -0.657552 0.705725 -0.263775
vn -0.657552 0.705725 -0.263775
vn 0.487667 0.705725 -0.513938
vn 0.487667 0.705725 -0.513938
vn 0.487667 0.705725 -0.513938
vn -0.338086 0.705726 -0.622614
vn -0.338086 0.705726 -0.622614
vn -0.338086 0.705726 -0.622614
vn -0.092446 0.705726 0.702428
vn -0.092446 0.705726 0.702428
vn -0.092446 0.705726 0.702428
vn 0.639482 0.705725 0.304983
vn 0.639482 0.705725 0.304983
vn 0.639482 0.705725 0.304983
vn -0.696616 0.705725 0.129141
vn -0.696616 0.705725 0.129141
vn -0.696616 0.705725 0.129141
vn -0.092445 0.705726 0.702428
vn -0.092445 0.705725 0.702428
vn -0.092445 0.705725 0.702428
vn -0.657551 0.705726 -0.263775
vn -0.657551 0.705726 -0.263775
vn -0.657551 0.705726 -0.263775
vn 0.487668 0.705725 -0.513938
vn 0.487668 0.705725 -0.513938
vn 0.487668 0.705725 -0.513938
vn 0.376927 0.705725 0.599899
vn 0.376927 0.705725 0.599899
vn 0.376927 0.705725 0.599899
vn -0.696616 0.705725 0.129141
vn -0.696616 0.705726 0.129141
vn -0.696616 0.705725 0.129141
vn 0.047670 0.705726 -0.706879
vn 0.047670 0.705726 -0.706880
vn 0.047670 0.705726 -0.706880
vn 0.639481 0.705725 0.304984
vn 0.639482 0.705725 0.304984
vn 0.639482 0.705725 0.304984
vn -0.454060 0.705726 0.543858
vn -0.454060 0.705726 0.543858
vn -0.454060 0.705726 0.543858
vn -0.338086 0.705726 -0.622615
vn -0.338086 0.705725 -0.622615
vn -0.338086 0.705725 -0.622615
vn 0.687014 0.705725 -0.173101
vn 0.687014 0.705725 -0.173101
vn 0.687014 0.705725 -0.173101
vn -0.923142 0.039975 0.382376
vn -0.923142 0.039975 0.382376
vn -0.923142 0.039975 0.382376
vn 0.923142 0.039974 0.382376
vn 0.923142 0.039974 0.382376
vn 0.923142 0.039974 0.382376
vn 0.923142 0.039974 -0.382376
vn 0.923142 0.039974 -0.382376
vn 0.923142 0.039974 -0.382376
vn -0.382378 0.039974 0.923141
vn -0.382378 0.039974 0.923141
vn -0.382378 0.039974 0.923141
vn 0.382380 0.039974 0.923140
vn 0.382380 0.039974 0.923140
vn 0.382380 0.039974 0.923140
vn -0.382378 0.039974 -0.923141
vn -0.382378 0.039974 -0.923141
vn -0.382378 0.039974 -0.923141
vn -0.923142 0.039975 -0.382376
vn -0.923142 0.039975 -0.382376
vn -0.923142 0.039975 -0.382376
vn 0.382380 0.039974 -0.923140
vn 0.382380 0.039974 -0.923140
vn 0.382380 0.039974 -0.923140
s off
g tree:polySurface196
usemtl tree:initialShadingGroup
f 7/1/1 11/2/2 6/3/3
f 6/3/4 11/2/5 5/4/6
f 3/5/7 11/2/8 2/6/9
f 10/7/10 11/2/11 9/8/12
f 9/8/13 11/2/14 8/9/15
f 1/10/16 11/2/17 10/7/18
f 2/6/19 11/2/20 1/10/21
f 4/11/22 11/2/23 3/5/24
f 5/4/25 11/2/26 4/11/27
f 8/9/28 11/2/29 7/1/30
f 18/12/31 12/13/32 19/14/33
f 17/15/34 12/13/35 18/12/36
f 14/16/37 12/13/38 15/17/39
f 19/14/40 12/13/41 20/18/42
f 16/19/43 12/13/44 17/15/45
f 13/20/46 12/13/47 14/16/48
f 21/21/49 12/13/50 22/22/51
f 15/17/52 12/13/53 16/19/54
f 20/18/55 12/13/56 21/21/57
f 22/22/58 12/13/59 13/20/60
f 25/23/61 33/24/62 24/25/63
f 28/26/64 33/24/65 27/27/66
f 29/28/67 33/24/68 28/26/69
f 30/29/70 33/24/71 29/28/72
f 27/27/73 33/24/74 26/30/75
f 26/30/76 33/24/77 25/23/78
f 24/25/79 33/24/80 23/31/81
f 23/31/82 33/24/83 32/32/84
f 31/33/85 33/24/86 30/29/87
f 32/32/88 33/24/89 31/33/90
f 36/34/91 34/35/92 37/36/93
f 39/37/94 34/35/95 40/38/96
f 40/38/97 34/35/98 41/39/99
f 44/40/100 34/35/101 35/41/102
f 42/42/103 34/35/104 43/43/105
f 37/36/106 34/35/107 38/44/108
f 43/43/109 34/35/110 44/40/111
f 35/41/112 34/35/113 36/34/114
f 38/44/115 34/35/116 39/37/117
f 41/39/118 34/35/119 42/42/120
f 51/45/121 55/46/122 50/47/123
f 50/47/124 55/46/125 49/48/126
f 47/49/127 55/46/128 46/50/129
f 54/51/130 55/46/131 53/52/132
f 53/52/133 55/46/134 52/53/135
f 45/54/136 55/46/137 54/51/138
f 46/50/139 55/46/140 45/54/141
f 48/55/142 55/46/143 47/49/144
f 49/48/145 55/46/146 48/55/147
f 52/53/148 55/46/149 51/45/150
f 59/56/151 56/57/152 60/58/153
f 61/59/154 56/57/155 62/60/156
f 57/61/157 56/57/158 58/62/159
f 63/63/160 56/57/161 64/64/162
f 65/65/163 56/57/164 66/66/165
f 58/62/166 56/57/167 59/56/168
f 66/66/169 56/57/170 57/61/171
f 62/60/172 56/57/173 63/63/174
f 60/58/175 56/57/176 61/59/177
f 64/64/178 56/57/179 65/65/180
f 71/67/181 77/68/182 70/69/183
f 68/70/184 77/68/185 67/71/186
f 75/72/187 77/68/188 74/73/189
f 72/74/190 77/68/191 71/67/192
f 69/75/193 77/68/194 68/70/195
f 76/76/196 77/68/197 75/72/198
f 73/77/199 77/68/200 72/74/201
f 70/69/202 77/68/203 69/75/204
f 67/71/205 77/68/206 76/76/207
f 74/73/208 77/68/209 73/77/210
f 83/78/211 78/79/212 84/80/213
f 80/81/214 78/79/215 81/82/216
f 79/83/217 78/79/218 80/81/219
f 82/84/220 78/79/221 83/78/222
f 81/82/223 78/79/224 82/84/225
f 85/85/226 78/79/227 86/86/228
f 84/80/229 78/79/230 85/85/231
f 86/86/232 78/79/233 79/83/234
