# This file uses centimeters as units for non-parametric coordinates.

mtllib tree1.mtl
g default
v -0.189120 1.449729 -0.173560
v -0.250928 1.435386 -0.032612
v -0.218082 1.449729 0.117747
v -0.103133 1.435386 0.220084
v 0.050017 1.449729 0.235311
v 0.182867 1.435386 0.157610
v 0.244674 1.449729 0.016662
v 0.211829 1.435386 -0.133697
v 0.096880 1.449729 -0.236034
v -0.056270 1.435386 -0.251261
v -0.003126 2.137238 -0.007975
v -0.003126 1.752151 -0.007975
v -0.088302 1.067225 -0.397904
v 0.157158 1.081221 -0.373499
v 0.341397 1.067225 -0.209477
v 0.394039 1.081221 0.031512
v 0.294977 1.067225 0.257419
v 0.082049 1.081221 0.381953
v -0.163411 1.067225 0.357550
v -0.347650 1.081221 0.193527
v -0.400292 1.067225 -0.047462
v -0.301230 1.081221 -0.273369
v -0.405185 0.596160 -0.365917
v -0.538790 0.578257 -0.061232
v -0.467792 0.596160 0.263795
v -0.219306 0.578257 0.485015
v 0.111753 0.596160 0.517930
v 0.398931 0.578257 0.349966
v 0.532538 0.596160 0.045282
v 0.461539 0.578257 -0.279745
v 0.213053 0.596160 -0.500965
v -0.118006 0.578257 -0.533879
v -0.003126 1.454286 -0.007975
v -0.003126 1.091620 -0.007975
v -0.146528 0.185380 -0.664452
v 0.266727 0.203900 -0.623365
v 0.576907 0.185380 -0.347220
v 0.665533 0.203900 0.058505
v 0.498754 0.185380 0.438836
v 0.140275 0.203900 0.648501
v -0.272980 0.185380 0.607414
v -0.583160 0.203900 0.331270
v -0.671786 0.185380 -0.074454
v -0.505008 0.203900 -0.454786
v -0.658032 -0.241074 -0.591019
v -0.875660 -0.258350 -0.094724
v -0.760011 -0.241074 0.434706
v -0.355258 -0.258350 0.795047
v 0.183998 -0.241074 0.848661
v 0.651779 -0.258350 0.575070
v 0.869408 -0.241074 0.078774
v 0.753759 -0.258350 -0.450656
v 0.349005 -0.241074 -0.810997
v -0.190251 -0.258350 -0.864611
v -0.003126 0.587047 -0.007975
v -0.003126 0.258986 -0.007975
v -0.232499 -0.777282 -1.058019
v 0.428508 -0.756106 -0.992300
v 0.924645 -0.777282 -0.550603
v 1.066404 -0.756106 0.098360
v 0.799640 -0.777282 0.706707
v 0.226246 -0.756106 1.042069
v -0.434761 -0.777282 0.976350
v -0.930898 -0.756106 0.534652
v -1.072658 -0.777282 -0.114310
v -0.805893 -0.756106 -0.722657
v -0.998596 -1.375716 -0.894215
v -1.329397 -1.401976 -0.139836
v -1.153608 -1.375716 0.664910
v -0.538374 -1.401976 1.212636
v 0.281307 -1.375716 1.294130
v 0.992343 -1.401976 0.878265
v 1.323144 -1.375716 0.123886
v 1.147355 -1.401976 -0.680859
v 0.532121 -1.375716 -1.228587
v -0.287560 -1.401976 -1.310081
v -0.003126 -0.116953 -0.007975
v -0.004145 2.116137 -0.007975
v 0.125704 -2.124616 -0.137824
v 0.179489 -2.124616 -0.007975
v 0.125704 -2.124616 0.121873
v -0.004145 -2.124616 0.175659
v -0.133994 -2.124616 0.121873
v -0.187779 -2.124616 -0.007975
v -0.133994 -2.124616 -0.137824
v -0.004145 -2.124616 -0.191608
vt 0.636663 0.271731
vt 0.570241 0.357493
vt 0.573673 0.245616
vt 0.509201 0.267820
vt 0.466094 0.387834
vt 0.501704 0.445986
vt 0.633224 0.450021
vt 0.672331 0.394162
vt 0.677703 0.326186
vt 0.566914 0.465918
vt 0.464900 0.319657
vt 0.782533 0.036553
vt 0.847996 0.123808
vt 0.741655 0.091050
vt 0.846289 0.012548
vt 0.952243 0.155921
vt 0.953282 0.087803
vt 0.744782 0.159103
vt 0.910751 0.034586
vt 0.914774 0.212815
vt 0.783980 0.214822
vt 0.849669 0.232876
vt 0.464754 0.633787
vt 0.564883 0.600459
vt 0.502294 0.687915
vt 0.564114 0.492917
vt 0.502245 0.515530
vt 0.626300 0.514643
vt 0.666924 0.566495
vt 0.462367 0.567958
vt 0.565638 0.705986
vt 0.628717 0.687011
vt 0.665478 0.632351
vt 0.674285 0.158329
vt 0.572633 0.128827
vt 0.673792 0.092376
vt 0.569226 0.021356
vt 0.507736 0.045210
vt 0.469369 0.098857
vt 0.575987 0.234620
vt 0.638560 0.213771
vt 0.473055 0.164709
vt 0.512220 0.217776
vt 0.632103 0.041268
vt 0.890130 0.284732
vt 0.832237 0.359481
vt 0.835168 0.263950
vt 0.779036 0.281323
vt 0.741465 0.385926
vt 0.773715 0.435044
vt 0.886018 0.438490
vt 0.921218 0.391441
vt 0.923998 0.332748
vt 0.829338 0.453983
vt 0.742288 0.327173
vt 0.609031 0.780381
vt 0.551100 0.799662
vt 0.586251 0.750548
vt 0.550664 0.738609
vt 0.515251 0.751055
vt 0.587339 0.848800
vt 0.608673 0.817916
vt 0.492900 0.781211
vt 0.493793 0.818736
vt 0.515566 0.849312
vt 0.551531 0.860058
vt 0.769411 0.502214
vt 0.828456 0.580920
vt 0.733401 0.551636
vt 0.771232 0.662273
vt 0.829963 0.679300
vt 0.922487 0.609888
vt 0.922570 0.548739
vt 0.826933 0.481468
vt 0.735357 0.612754
vt 0.888145 0.660482
vt 0.885064 0.500443
vt 0.795021 0.758248
vt 0.846300 0.809527
vt 0.773781 0.809526
vt 0.918818 0.809526
vt 0.897578 0.758248
vt 0.897578 0.860805
vt 0.846300 0.737008
vt 0.795021 0.860805
vt 0.846300 0.882045
vn 0.854365 0.322539 0.407467
vn 0.854365 0.322539 0.407467
vn 0.854365 0.322539 0.407467
vn 0.503580 0.322544 0.801482
vn 0.503580 0.322544 0.801482
vn 0.503580 0.322544 0.801482
vn -0.930697 0.322541 0.172539
vn -0.930697 0.322541 0.172539
vn -0.930697 0.322541 0.172539
vn 0.063695 0.322542 -0.944410
vn 0.063695 0.322542 -0.944410
vn 0.063695 0.322542 -0.944410
vn 0.651536 0.322543 -0.686635
vn 0.651536 0.322543 -0.686635
vn 0.651536 0.322543 -0.686635
vn -0.451690 0.322547 -0.831829
vn -0.451690 0.322547 -0.831829
vn -0.451690 0.322547 -0.831829
vn -0.878507 0.322540 -0.352411
vn -0.878507 0.322539 -0.352411
vn -0.878507 0.322540 -0.352411
vn -0.606638 0.322543 0.726606
vn -0.606638 0.322543 0.726606
vn -0.606638 0.322543 0.726606
vn -0.123504 0.322542 0.938463
vn -0.123504 0.322542 0.938463
vn -0.123504 0.322542 0.938463
vn 0.917867 0.322543 -0.231272
vn 0.917867 0.322543 -0.231272
vn 0.917867 0.322543 -0.231272
vn -0.113866 0.488367 0.865177
vn -0.113866 0.488367 0.865177
vn -0.113866 0.488367 0.865177
vn 0.464257 0.488367 0.738894
vn 0.464257 0.488367 0.738894
vn 0.464257 0.488367 0.738894
vn 0.600655 0.488368 -0.633017
vn 0.600655 0.488368 -0.633017
vn 0.600655 0.488368 -0.633017
vn -0.559263 0.488364 0.669869
vn -0.559263 0.488364 0.669870
vn -0.559263 0.488364 0.669870
vn 0.787649 0.488365 0.375645
vn 0.787649 0.488365 0.375645
vn 0.787649 0.488365 0.375645
vn 0.058719 0.488365 -0.870661
vn 0.058719 0.488365 -0.870661
vn 0.058719 0.488365 -0.870661
vn -0.809904 0.488365 -0.324894
vn -0.809904 0.488365 -0.324893
vn -0.809904 0.488365 -0.324894
vn 0.846192 0.488368 -0.213206
vn 0.846192 0.488368 -0.213206
vn 0.846191 0.488368 -0.213206
vn -0.858020 0.488364 0.159064
vn -0.858020 0.488364 0.159064
vn -0.858020 0.488364 0.159064
vn -0.416421 0.488367 -0.766871
vn -0.416421 0.488367 -0.766871
vn -0.416421 0.488367 -0.766871
vn -0.846787 0.508242 0.156977
vn -0.846787 0.508242 0.156977
vn -0.846787 0.508242 0.156977
vn 0.458184 0.508240 0.729218
vn 0.458184 0.508240 0.729218
vn 0.458184 0.508240 0.729218
vn 0.777334 0.508242 0.370731
vn 0.777334 0.508242 0.370731
vn 0.777334 0.508242 0.370731
vn 0.835114 0.508241 -0.210419
vn 0.835114 0.508241 -0.210419
vn 0.835114 0.508241 -0.210419
vn -0.112377 0.508243 0.853850
vn -0.112377 0.508243 0.853850
vn -0.112377 0.508243 0.853850
vn -0.551940 0.508240 0.661100
vn -0.551940 0.508240 0.661100
vn -0.551940 0.508240 0.661100
vn -0.799303 0.508241 -0.320634
vn -0.799303 0.508241 -0.320634
vn -0.799303 0.508241 -0.320633
vn -0.410965 0.508243 -0.756833
vn -0.410965 0.508243 -0.756833
vn -0.410965 0.508243 -0.756833
vn 0.592795 0.508241 -0.624728
vn 0.592795 0.508241 -0.624728
vn 0.592795 0.508241 -0.624728
vn 0.057948 0.508240 -0.859264
vn 0.057948 0.508240 -0.859264
vn 0.057948 0.508240 -0.859264
vn 0.560688 0.580063 -0.590894
vn 0.560688 0.580063 -0.590894
vn 0.560688 0.580063 -0.590894
vn 0.433369 0.580061 0.689725
vn 0.433369 0.580061 0.689725
vn 0.433369 0.580061 0.689725
vn -0.106292 0.580062 0.807607
vn -0.106291 0.580062 0.807608
vn -0.106292 0.580062 0.807607
vn -0.388710 0.580062 -0.715844
vn -0.388710 0.580062 -0.715844
vn -0.388710 0.580062 -0.715844
vn -0.800926 0.580063 0.148476
vn -0.800926 0.580063 0.148476
vn -0.800926 0.580063 0.148476
vn 0.789886 0.580062 -0.199019
vn 0.789886 0.580062 -0.199019
vn 0.789886 0.580062 -0.199019
vn -0.756012 0.580063 -0.303271
vn -0.756012 0.580063 -0.303271
vn -0.756012 0.580063 -0.303271
vn 0.054810 0.580064 -0.812725
vn 0.054810 0.580064 -0.812725
vn 0.054810 0.580064 -0.812725
vn 0.735236 0.580062 0.350651
vn 0.735236 0.580062 0.350651
vn 0.735236 0.580062 0.350651
vn -0.522048 0.580062 0.625295
vn -0.522048 0.580062 0.625295
vn -0.522048 0.580062 0.625295
vn 0.639482 0.705725 0.304984
vn 0.639482 0.705725 0.304984
vn 0.639482 0.705725 0.304984
vn 0.376926 0.705725 0.599899
vn 0.376926 0.705725 0.599899
vn 0.376926 0.705725 0.599899
vn -0.696618 0.705723 0.129141
vn -0.696618 0.705723 0.129141
vn -0.696618 0.705723 0.129141
vn 0.047673 0.705724 -0.706881
vn 0.047673 0.705724 -0.706881
vn 0.047673 0.705724 -0.706881
vn 0.487667 0.705726 -0.513938
vn 0.487667 0.705726 -0.513938
vn 0.487667 0.705726 -0.513938
vn -0.338086 0.705727 -0.622614
vn -0.338086 0.705727 -0.622614
vn -0.338086 0.705726 -0.622614
vn -0.657553 0.705725 -0.263774
vn -0.657553 0.705725 -0.263774
vn -0.657553 0.705725 -0.263774
vn -0.454058 0.705726 0.543858
vn -0.454058 0.705726 0.543858
vn -0.454058 0.705726 0.543858
vn -0.092446 0.705727 0.702427
vn -0.092446 0.705727 0.702427
vn -0.092446 0.705727 0.702427
vn 0.687014 0.705725 -0.173101
vn 0.687014 0.705725 -0.173101
vn 0.687014 0.705725 -0.173101
vn 0.687013 0.705726 -0.173100
vn 0.687013 0.705726 -0.173100
vn 0.687013 0.705726 -0.173100
vn 0.376927 0.705725 0.599899
vn 0.376927 0.705725 0.599899
vn 0.376927 0.705725 0.599899
vn 0.047671 0.705725 -0.706880
vn 0.047671 0.705725 -0.706880
vn 0.047671 0.705725 -0.706880
vn -0.454060 0.705725 0.543858
vn -0.454060 0.705725 0.543858
vn -0.454060 0.705725 0.543858
vn -0.657552 0.705725 -0.263775
vn -0.657552 0.705725 -0.263775
vn -0.657552 0.705725 -0.263775
vn 0.487667 0.705725 -0.513938
vn 0.487667 0.705725 -0.513938
vn 0.487667 0.705725 -0.513938
vn -0.338086 0.705726 -0.622614
vn -0.338086 0.705726 -0.622614
vn -0.338086 0.705726 -0.622614
vn -0.092446 0.705726 0.702428
vn -0.092446 0.705726 0.702428
vn -0.092446 0.705726 0.702428
vn 0.639482 0.705725 0.304983
vn 0.639482 0.705725 0.304983
vn 0.639482 0.705725 0.304983
vn -0.696616 0.705725 0.129141
vn -0.696616 0.705725 0.129141
vn -0.696616 0.705725 0.129141
vn -0.092445 0.705726 0.702428
vn -0.092445 0.705725 0.702428
vn -0.092445 0.705725 0.702428
vn -0.657551 0.705726 -0.263775
vn -0.657551 0.705726 -0.263775
vn -0.657551 0.705726 -0.263775
vn 0.487668 0.705725 -0.513938
vn 0.487668 0.705725 -0.513938
vn 0.487668 0.705725 -0.513938
vn 0.376927 0.705725 0.599899
vn 0.376927 0.705725 0.599899
vn 0.376927 0.705725 0.599899
vn -0.696616 0.705725 0.129141
vn -0.696616 0.705726 0.129141
vn -0.696616 0.705725 0.129141
vn 0.047670 0.705726 -0.706879
vn 0.047670 0.705726 -0.706880
vn 0.047670 0.705726 -0.706880
vn 0.639481 0.705725 0.304984
vn 0.639482 0.705725 0.304984
vn 0.639482 0.705725 0.304984
vn -0.454060 0.705726 0.543858
vn -0.454060 0.705726 0.543858
vn -0.454060 0.705726 0.543858
vn -0.338086 0.705726 -0.622615
vn -0.338086 0.705725 -0.622615
vn -0.338086 0.705725 -0.622615
vn 0.687014 0.705725 -0.173101
vn 0.687014 0.705725 -0.173101
vn 0.687014 0.705725 -0.173101
vn -0.923142 0.039975 0.382376
vn -0.923142 0.039975 0.382376
vn -0.923142 0.039975 0.382376
vn 0.923142 0.039974 0.382376
vn 0.923142 0.039974 0.382376
vn 0.923142 0.039974 0.382376
vn 0.923142 0.039974 -0.382376
vn 0.923142 0.039974 -0.382376
vn 0.923142 0.039974 -0.382376
vn -0.382378 0.039974 0.923141
vn -0.382378 0.039974 0.923141
vn -0.382378 0.039974 0.923141
vn 0.382380 0.039974 0.923140
vn 0.382380 0.039974 0.923140
vn 0.382380 0.039974 0.923140
vn -0.382378 0.039974 -0.923141
vn -0.382378 0.039974 -0.923141
vn -0.382378 0.039974 -0.923141
vn -0.923142 0.039975 -0.382376
vn -0.923142 0.039975 -0.382376
vn -0.923142 0.039975 -0.382376
vn 0.382380 0.039974 -0.923140
vn 0.382380 0.039974 -0.923140
vn 0.382380 0.039974 -0.923140
s off
g tree5:polySurface196
usemtl initialShadingGroup
f 7/1/1 11/2/2 6/3/3
f 6/3/4 11/2/5 5/4/6
f 3/5/7 11/2/8 2/6/9
f 10/7/10 11/2/11 9/8/12
f 9/8/13 11/2/14 8/9/15
f 1/10/16 11/2/17 10/7/18
f 2/6/19 11/2/20 1/10/21
f 4/11/22 11/2/23 3/5/24
f 5/4/25 11/2/26 4/11/27
f 8/9/28 11/2/29 7/1/30
f 18/12/31 12/13/32 19/14/33
f 17/15/34 12/13/35 18/12/36
f 14/16/37 12/13/38 15/17/39
f 19/14/40 12/13/41 20/18/42
f 16/19/43 12/13/44 17/15/45
f 13/20/46 12/13/47 14/16/48
f 21/21/49 12/13/50 22/22/51
f 15/17/52 12/13/53 16/19/54
f 20/18/55 12/13/56 21/21/57
f 22/22/58 12/13/59 13/20/60
f 25/23/61 33/24/62 24/25/63
f 28/26/64 33/24/65 27/27/66
f 29/28/67 33/24/68 28/26/69
f 30/29/70 33/24/71 29/28/72
f 27/27/73 33/24/74 26/30/75
f 26/30/76 33/24/77 25/23/78
f 24/25/79 33/24/80 23/31/81
f 23/31/82 33/24/83 32/32/84
f 31/33/85 33/24/86 30/29/87
f 32/32/88 33/24/89 31/33/90
f 36/34/91 34/35/92 37/36/93
f 39/37/94 34/35/95 40/38/96
f 40/38/97 34/35/98 41/39/99
f 44/40/100 34/35/101 35/41/102
f 42/42/103 34/35/104 43/43/105
f 37/36/106 34/35/107 38/44/108
f 43/43/109 34/35/110 44/40/111
f 35/41/112 34/35/113 36/34/114
f 38/44/115 34/35/116 39/37/117
f 41/39/118 34/35/119 42/42/120
f 51/45/121 55/46/122 50/47/123
f 50/47/124 55/46/125 49/48/126
f 47/49/127 55/46/128 46/50/129
f 54/51/130 55/46/131 53/52/132
f 53/52/133 55/46/134 52/53/135
f 45/54/136 55/46/137 54/51/138
f 46/50/139 55/46/140 45/54/141
f 48/55/142 55/46/143 47/49/144
f 49/48/145 55/46/146 48/55/147
f 52/53/148 55/46/149 51/45/150
f 59/56/151 56/57/152 60/58/153
f 61/59/154 56/57/155 62/60/156
f 57/61/157 56/57/158 58/62/159
f 63/63/160 56/57/161 64/64/162
f 65/65/163 56/57/164 66/66/165
f 58/62/166 56/57/167 59/56/168
f 66/66/169 56/57/170 57/61/171
f 62/60/172 56/57/173 63/63/174
f 60/58/175 56/57/176 61/59/177
f 64/64/178 56/57/179 65/65/180
f 71/67/181 77/68/182 70/69/183
f 68/70/184 77/68/185 67/71/186
f 75/72/187 77/68/188 74/73/189
f 72/74/190 77/68/191 71/67/192
f 69/75/193 77/68/194 68/70/195
f 76/76/196 77/68/197 75/72/198
f 73/77/199 77/68/200 72/74/201
f 70/69/202 77/68/203 69/75/204
f 67/71/205 77/68/206 76/76/207
f 74/73/208 77/68/209 73/77/210
f 83/78/211 78/79/212 84/80/213
f 80/81/214 78/79/215 81/82/216
f 79/83/217 78/79/218 80/81/219
f 82/84/220 78/79/221 83/78/222
f 81/82/223 78/79/224 82/84/225
f 85/85/226 78/79/227 86/86/228
f 84/80/229 78/79/230 85/85/231
f 86/86/232 78/79/233 79/83/234
