# This file uses centimeters as units for non-parametric coordinates.

mtllib tree4.mtl
g default
v 0.047313 -1.858800 0.016260
v 0.623308 -1.418774 0.434741
v -0.172695 -1.418774 0.693382
v -0.664662 -1.418774 0.016260
v -0.172695 -1.418774 -0.660862
v 0.623308 -1.418774 -0.402221
v 0.267320 -0.706794 0.693382
v -0.528682 -0.706794 0.434741
v -0.528682 -0.706794 -0.402221
v 0.267320 -0.706794 -0.660862
v 0.759288 -0.706794 0.016260
v 0.193772 1.307846 0.467024
v -0.336131 1.109733 0.294845
v -0.336131 0.919140 -0.262325
v 0.193772 1.109736 -0.434505
v 0.521279 1.307851 0.016260
v 0.047313 2.398384 0.016260
v 0.046244 -2.327513 -0.068529
v -0.038543 -2.327513 0.016258
v 0.046244 -2.327513 0.101048
v 0.131033 -2.327513 0.016258
v 0.106525 -1.056038 0.016258
v 0.047313 -1.083024 -0.042955
v -0.011900 -1.056038 0.016258
v 0.047313 -1.056038 0.075473
vt 1.499102 0.750020
vt 1.726884 0.928871
vt 1.524656 0.966887
vt 0.404323 0.760011
vt 1.346806 0.917938
vt 0.658660 0.755165
vt 0.215271 0.932437
vt 1.610770 1.146920
vt 1.383467 1.114487
vt 1.162562 1.041068
vt 0.491486 0.982761
vt 1.318991 1.602976
vt 1.162735 1.533696
vt 0.190377 1.603568
vt 1.467806 1.684869
vt 0.379019 1.561798
vt 0.300013 1.999270
vt 1.359956 1.995926
vt 1.718116 0.508295
vt 0.408027 0.088301
vt 0.439516 0.347811
vt 1.723389 0.384681
vt 1.725069 0.260964
vt 0.412847 0.261033
vt 0.411666 0.174633
vt 1.723376 0.137245
vt 0.573538 1.548627
vt 1.617557 1.728045
vt 1.835332 1.181902
vt 0.756261 1.031224
vt 1.218829 0.761707
vt 0.190498 0.625953
vt 0.471071 0.515856
vt 1.718166 0.013626
vt 0.408015 0.432954
vn 0.187602 -0.794610 0.577408
vn 0.187602 -0.794610 0.577408
vn 0.187602 -0.794610 0.577408
vn 0.607064 -0.794653 0.000000
vn 0.607064 -0.794653 0.000000
vn 0.607064 -0.794653 0.000000
vn -0.491092 -0.794687 0.356794
vn -0.491092 -0.794687 0.356794
vn -0.491092 -0.794687 0.356794
vn -0.491092 -0.794687 -0.356794
vn -0.491092 -0.794687 -0.356794
vn -0.491092 -0.794687 -0.356794
vn 0.187602 -0.794610 -0.577408
vn 0.187602 -0.794610 -0.577408
vn 0.187602 -0.794610 -0.577408
vn 0.982244 -0.187608 0.000000
vn 0.982244 -0.187608 0.000000
vn 0.982244 -0.187608 0.000000
vn 0.303495 -0.187597 0.934183
vn 0.303495 -0.187597 0.934183
vn 0.303495 -0.187597 0.934183
vn -0.794610 -0.187602 0.577408
vn -0.794610 -0.187602 0.577408
vn -0.794610 -0.187602 0.577408
vn -0.794610 -0.187602 -0.577408
vn -0.794610 -0.187602 -0.577408
vn -0.794610 -0.187602 -0.577408
vn 0.303495 -0.187597 -0.934183
vn 0.303495 -0.187597 -0.934183
vn 0.303495 -0.187597 -0.934183
vn 0.794610 0.187602 0.577408
vn 0.794610 0.187602 0.577408
vn 0.794610 0.187602 0.577408
vn -0.303495 0.187597 0.934183
vn -0.303495 0.187597 0.934183
vn -0.303495 0.187597 0.934183
vn -0.982244 0.187608 0.000000
vn -0.982244 0.187608 0.000000
vn -0.982244 0.187608 0.000000
vn -0.303495 0.187597 -0.934183
vn -0.303495 0.187597 -0.934183
vn -0.303495 0.187597 -0.934183
vn 0.794610 0.187602 -0.577408
vn 0.794610 0.187602 -0.577408
vn 0.794610 0.187602 -0.577408
vn -0.993682 0.111198 -0.015200
vn -0.993682 0.111198 -0.015200
vn -0.993682 0.111198 -0.015200
vn -0.993682 0.111198 -0.015200
vn 0.805343 0.095105 0.585131
vn 0.805343 0.095105 0.585131
vn 0.805343 0.095105 0.585131
vn 0.805343 0.095105 0.585131
vn -0.320995 0.099999 0.941787
vn -0.320995 0.099999 0.941787
vn -0.320995 0.099999 0.941787
vn -0.320995 0.099999 0.941787
vn -0.321487 0.111196 -0.940363
vn -0.321487 0.111196 -0.940363
vn -0.321487 0.111196 -0.940363
vn -0.321487 0.111196 -0.940363
vn 0.796506 0.100001 -0.596304
vn 0.796506 0.100001 -0.596304
vn 0.796506 0.100001 -0.596304
vn 0.796506 0.100001 -0.596304
vn 0.701695 0.304998 -0.643895
vn 0.701695 0.304998 -0.643895
vn 0.701695 0.304998 -0.643895
vn -0.395516 0.305012 0.866334
vn -0.395516 0.305012 0.866334
vn -0.395516 0.305012 0.866334
vn -0.383103 0.265902 -0.884606
vn -0.383103 0.265902 -0.884606
vn -0.383103 0.265902 -0.884606
vn 0.763212 0.331705 0.554509
vn 0.763212 0.331705 0.554509
vn 0.763212 0.331705 0.554509
vn -0.959696 0.265899 -0.091000
vn -0.959696 0.265899 -0.091000
vn -0.959696 0.265899 -0.091000
vn -0.705626 0.015001 -0.708426
vn -0.705626 0.015001 -0.708426
vn -0.705626 0.015001 -0.708426
vn -0.705626 0.015001 -0.708426
vn 0.707041 0.013601 0.707041
vn 0.707041 0.013601 0.707041
vn 0.707041 0.013601 0.707041
vn 0.707041 0.013601 0.707041
vn -0.707029 0.014801 0.707029
vn -0.707029 0.014801 0.707029
vn -0.707029 0.014801 0.707029
vn -0.707029 0.014801 0.707029
vn 0.705788 0.013800 -0.708288
vn 0.705788 0.013800 -0.708288
vn 0.705788 0.013800 -0.708288
vn 0.705788 0.013800 -0.708288
s off
g tree8:polySurface392
usemtl initialShadingGroup
f 1/1/1 2/2/2 3/3/3
f 2/32/4 1/33/5 6/4/6
f 1/1/7 3/3/8 4/5/9
f 1/1/10 4/5/11 5/31/12
f 1/33/13 5/6/14 6/4/15
f 2/32/16 6/4/17 11/7/18
f 3/3/19 2/2/20 7/8/21
f 4/5/22 3/3/23 8/9/24
f 5/31/25 4/5/26 9/10/27
f 6/4/28 5/6/29 10/11/30
f 2/2/31 11/29/32 7/8/33
f 3/3/34 7/8/35 8/9/36
f 4/5/37 8/9/38 9/10/39
f 5/6/40 9/30/41 10/11/42
f 6/4/43 10/11/44 11/7/45
f 9/10/46 8/9/47 13/12/48 14/13/49
f 7/8/50 11/29/51 16/28/52 12/15/53
f 8/9/54 7/8/55 12/15/56 13/12/57
f 10/11/58 9/30/59 14/27/60 15/16/61
f 11/7/62 10/11/63 15/16/64 16/14/65
f 16/14/66 15/16/67 17/17/68
f 13/12/69 12/15/70 17/18/71
f 15/16/72 14/27/73 17/17/74
f 12/15/75 16/28/76 17/18/77
f 14/13/78 13/12/79 17/18/80
f 19/19/81 24/35/82 23/21/83 18/22/84
f 21/23/85 22/24/86 25/25/87 20/26/88
f 20/26/89 25/25/90 24/20/91 19/34/92
f 18/22/93 23/21/94 22/24/95 21/23/96
